<svg xmlns="http://www.w3.org/2000/svg" viewBox="0 0 404.27 322.14"><defs><style>.cls-1{fill:#fff;}.cls-2{fill:#076633;}.cls-3{fill:none;stroke:#03c85e;stroke-linecap:round;stroke-width:8px;}</style></defs><g id="Capa_2" data-name="Capa 2"><g id="Capa_2-2" data-name="Capa 2"><circle id="Elipse_3" data-name="Elipse 3" class="cls-1" cx="300.61" cy="218.48" r="103.66"/><g id="drill"><path id="Trazado_3" data-name="Trazado 3" class="cls-2" d="M180.06,133.06H17.85A17.87,17.87,0,0,1,0,115.21V17.85A17.87,17.87,0,0,1,17.85,0H180.08a5,5,0,0,1,5,5h0V128a5,5,0,0,1-5,5ZM17.85,10.07a7.77,7.77,0,0,0-7.77,7.78v97.36A7.77,7.77,0,0,0,17.85,123H175V10.07Z"/><path id="Trazado_4" data-name="Trazado 4" class="cls-2" d="M180.06,133.06a5,5,0,0,1-5-5h0V5A5,5,0,0,1,182.67.74L223.1,25.41a5,5,0,0,1,2.41,4.29v73.67a5,5,0,0,1-2.41,4.3l-40.43,24.67A5,5,0,0,1,180.06,133.06Zm5-119.06V119.05l30.34-18.51v-68Z"/><path id="Trazado_5" data-name="Trazado 5" class="cls-2" d="M250.91,108.41H220.46a5,5,0,0,1-5-5h0V29.68a5,5,0,0,1,5-5h30.45a5,5,0,0,1,3.77,1.68l19,21.38A5,5,0,0,1,275,51.06V82a5.05,5.05,0,0,1-1.28,3.35l-19,21.38A5.07,5.07,0,0,1,250.91,108.41ZM225.52,98.34h23.13L264.9,80.09V53L248.65,34.72H225.5Z"/><path id="Trazado_6" data-name="Trazado 6" class="cls-2" d="M332.2,87H269.93a5,5,0,0,1-5-5h0V51.06a5,5,0,0,1,5-5H332.2a5.1,5.1,0,0,1,3.59,1.51L351,63a5,5,0,0,1,0,7L335.83,85.52A5,5,0,0,1,332.22,87ZM275,76.94h55.12l10.25-10.43L330.13,56.1H275Z"/><path id="Trazado_7" data-name="Trazado 7" class="cls-2" d="M194.25,43.18H180.06a5,5,0,1,1,0-10.07h14.18a5,5,0,1,1,0,10.07Z"/><path id="Trazado_8" data-name="Trazado 8" class="cls-2" d="M194.25,71.56H180.06a5,5,0,1,1,0-10.07h14.18a5,5,0,1,1,0,10.07Z"/><path id="Trazado_9" data-name="Trazado 9" class="cls-2" d="M194.25,100H180.06a5,5,0,1,1,0-10.07h14.18a5,5,0,1,1,0,10.07Z"/><path id="Trazado_10" data-name="Trazado 10" class="cls-2" d="M124.13,62.1H48.74A15.65,15.65,0,0,1,33.13,46.5V5a5,5,0,0,1,5-5h96.56a5,5,0,0,1,5,5h0V46.5a15.64,15.64,0,0,1-15.63,15.62Zm-80.95-52V46.48A5.58,5.58,0,0,0,48.73,52h75.4a5.57,5.57,0,0,0,5.56-5.54V10.07Z"/><path id="Trazado_11" data-name="Trazado 11" class="cls-2" d="M70.49,247.79a5,5,0,0,1-5-4.67A227,227,0,0,1,88.13,125.59a5,5,0,0,1,8.81,4.85A220.8,220.8,0,0,0,75.53,242.35a5,5,0,0,1-4.63,5.4h0Z"/><path id="Trazado_12" data-name="Trazado 12" class="cls-2" d="M10.07,247.79a5,5,0,0,1-5-4.93c-2-81.27,22-116.3,23-117.73a5,5,0,0,1,8.25,5.78c-.27.41-23,34.26-21.16,111.71a5,5,0,0,1-4.91,5.15h0Z"/><path id="Trazado_13" data-name="Trazado 13" class="cls-2" d="M130.11,298.13H15.92A10.9,10.9,0,0,1,5,287.27V242.74a5,5,0,0,1,5-5h120A10.88,10.88,0,0,1,141,248.56v38.7A10.9,10.9,0,0,1,130.11,298.13Zm-115-50.35v39.49a.79.79,0,0,0,.79.79H130.11a.79.79,0,0,0,.79-.79h0V248.56a.79.79,0,0,0-.79-.79H15.1Z"/><path id="Trazado_14" data-name="Trazado 14" class="cls-2" d="M118,172.26H77.83a5,5,0,0,1,0-10.07h36.25l8.81-35.41a5,5,0,0,1,9.82,2.26c0,.06,0,.12,0,.18l-9.77,39.22a5,5,0,0,1-4.89,3.81Z"/></g><g id="Grupo_5" data-name="Grupo 5"><line id="Línea_12" data-name="Línea 12" class="cls-3" x1="300.61" y1="166.65" x2="300.61" y2="270.31"/><line id="Línea_13" data-name="Línea 13" class="cls-3" x1="248.78" y1="218.48" x2="352.44" y2="218.48"/></g></g></g></svg>