<svg id="Icons" height="512" viewBox="0 0 74 74" width="512" xmlns="http://www.w3.org/2000/svg"><path d="m37.764 33.821h-32.219a3.548 3.548 0 0 1 -3.545-3.544v-19.339a3.549 3.549 0 0 1 3.545-3.545h32.219a1 1 0 0 1 1 1v24.428a1 1 0 0 1 -1 1zm-32.219-24.428a1.547 1.547 0 0 0 -1.545 1.545v19.339a1.546 1.546 0 0 0 1.545 1.544h31.219v-22.428z"/><path d="m37.764 33.821a1 1 0 0 1 -1-1v-24.428a1 1 0 0 1 1.52-.853l8.026 4.9a1 1 0 0 1 .479.853v14.633a1 1 0 0 1 -.479.853l-8.026 4.9a1 1 0 0 1 -.52.142zm1-23.647v20.866l6.025-3.676v-13.514z"/><path d="m51.838 28.926h-6.049a1 1 0 0 1 -1-1v-14.638a1 1 0 0 1 1-1h6.049a1 1 0 0 1 .747.336l3.777 4.246a1 1 0 0 1 .253.665v6.144a1 1 0 0 1 -.253.665l-3.777 4.247a1 1 0 0 1 -.747.335zm-5.049-2h4.6l3.226-3.626v-5.385l-3.226-3.627h-4.6z"/><path d="m67.985 24.679h-12.37a1 1 0 0 1 -1-1v-6.144a1 1 0 0 1 1-1h12.37a1 1 0 0 1 .714.3l3.015 3.073a1 1 0 0 1 0 1.4l-3.014 3.071a1 1 0 0 1 -.715.3zm-11.37-2h10.95l2.035-2.072-2.034-2.072h-10.951z"/><path d="m40.582 15.97h-2.818a1 1 0 0 1 0-2h2.818a1 1 0 0 1 0 2z"/><path d="m40.582 21.607h-2.818a1 1 0 0 1 0-2h2.818a1 1 0 0 1 0 2z"/><path d="m40.582 27.245h-2.818a1 1 0 0 1 0-2h2.818a1 1 0 0 1 0 2z"/><path d="m26.655 19.728h-14.974a3.108 3.108 0 0 1 -3.1-3.1v-8.235a1 1 0 0 1 1-1h19.179a1 1 0 0 1 1 1v8.231a3.108 3.108 0 0 1 -3.105 3.104zm-16.078-10.335v7.231a1.106 1.106 0 0 0 1.1 1.1h14.978a1.106 1.106 0 0 0 1.105-1.1v-7.231z"/><path d="m16 56.607a1 1 0 0 1 -1-.923 45.087 45.087 0 0 1 4.5-23.345 1 1 0 0 1 1.753.964 43.869 43.869 0 0 0 -4.253 22.227 1 1 0 0 1 -.92 1.074c-.029.002-.056.003-.08.003z"/><path d="m4 56.607a1 1 0 0 1 -1-.976c-.391-16.144 4.361-23.1 4.563-23.385a1 1 0 0 1 1.639 1.148c-.054.081-4.572 6.806-4.202 22.189a1 1 0 0 1 -.976 1.023z"/><path d="m27.844 66.607h-22.685a2.159 2.159 0 0 1 -2.159-2.156v-8.844a1 1 0 0 1 1-1h23.844a2.159 2.159 0 0 1 2.156 2.156v7.688a2.159 2.159 0 0 1 -2.156 2.156zm-22.844-10v7.844a.156.156 0 0 0 .156.156h22.688a.156.156 0 0 0 .156-.156v-7.688a.156.156 0 0 0 -.156-.156z"/><path d="m25.44 41.607h-7.98a1 1 0 0 1 0-2h7.2l1.75-7.032a1 1 0 0 1 1.942.484l-1.94 7.79a1 1 0 0 1 -.972.758z"/></svg>