<svg xmlns="http://www.w3.org/2000/svg" viewBox="0 0 500 400"><defs><style>.cls-1{fill:#076633;}.cls-2{fill:#03c85e;}</style></defs><g id="Capa_2" data-name="Capa 2"><g id="Capa_1-2" data-name="Capa 1"><path class="cls-1" d="M83.33,40V93.33A6.67,6.67,0,0,0,90,100h53.33A6.67,6.67,0,0,0,150,93.33V40a6.67,6.67,0,0,0-6.67-6.67H90A6.67,6.67,0,0,0,83.33,40Zm13.34,6.67h40v40h-40Z"/><path class="cls-1" d="M356.67,100H410a6.67,6.67,0,0,0,6.67-6.67V40A6.67,6.67,0,0,0,410,33.33H356.67A6.67,6.67,0,0,0,350,40V93.33A6.67,6.67,0,0,0,356.67,100Zm6.66-53.33h40v40h-40Z"/><path class="cls-1" d="M143.33,300H90a6.67,6.67,0,0,0-6.67,6.67V360A6.67,6.67,0,0,0,90,366.67h53.33A6.67,6.67,0,0,0,150,360V306.67A6.67,6.67,0,0,0,143.33,300Zm-6.66,53.33h-40v-40h40Z"/><rect class="cls-1" x="110" y="60" width="13.33" height="13.33"/><path class="cls-1" d="M63.33,13.33h53.34V0h-60A6.67,6.67,0,0,0,50,6.67v60H63.33Z"/><path class="cls-1" d="M63.33,333.33H50v60A6.67,6.67,0,0,0,56.67,400h60V386.67H63.33Z"/><path class="cls-1" d="M443.33,0h-60V13.33h53.34V66.67H450v-60A6.67,6.67,0,0,0,443.33,0Z"/><path class="cls-1" d="M436.67,386.67h-40V400h46.66a6.67,6.67,0,0,0,6.67-6.67v-60H436.67Z"/><rect class="cls-1" x="376.67" y="60" width="13.33" height="13.33"/><rect class="cls-1" x="110" y="326.67" width="13.33" height="13.33"/><rect class="cls-1" x="163.33" y="60" width="13.33" height="13.33"/><rect class="cls-1" x="256.67" y="60" width="13.33" height="13.33"/><polygon class="cls-1" points="283.33 60 283.33 86.67 310 86.67 310 73.33 296.67 73.33 296.67 60 283.33 60"/><polygon class="cls-1" points="190 60 190 73.33 203.33 73.33 203.33 60 203.33 46.67 310 46.67 310 60 323.33 60 323.33 46.67 323.33 33.33 176.67 33.33 176.67 46.67 190 46.67 190 60"/><rect class="cls-1" x="163.33" y="86.67" width="13.33" height="26.67"/><rect class="cls-1" x="176.67" y="113.33" width="13.33" height="13.33"/><polygon class="cls-1" points="190 86.67 190 100 203.33 100 203.33 113.33 230 113.33 230 86.67 236.67 86.67 236.67 73.33 243.33 73.33 243.33 60 216.67 60 216.67 73.33 223.33 73.33 223.33 86.67 190 86.67"/><rect class="cls-1" x="243.33" y="100" width="13.33" height="13.33"/><polygon class="cls-1" points="316.67 166.67 330 166.67 330 153.33 343.33 153.33 343.33 140 316.67 140 316.67 166.67"/><rect class="cls-1" x="256.67" y="86.67" width="13.33" height="13.33"/><polygon class="cls-1" points="216.67 313.33 216.67 300 203.33 300 203.33 286.67 190 286.67 190 313.33 216.67 313.33"/><rect class="cls-1" x="323.33" y="73.33" width="13.33" height="13.33"/><rect class="cls-1" x="316.67" y="100" width="26.67" height="26.67"/><polygon class="cls-1" points="83.33 273.33 96.67 273.33 96.67 220 110 220 110 206.67 83.33 206.67 83.33 273.33"/><rect class="cls-1" x="83.33" y="113.33" width="66.67" height="13.33"/><polygon class="cls-1" points="110 140 83.33 140 83.33 180 96.67 180 96.67 166.67 110 166.67 110 140"/><polygon class="cls-1" points="216.67 206.67 216.67 193.33 230 193.33 230 166.67 243.33 166.67 243.33 153.33 256.67 153.33 256.67 140 243.33 140 243.33 126.67 230 126.67 230 140 230 153.33 216.67 153.33 216.67 140 190 140 190 166.67 203.33 166.67 203.33 206.67 216.67 206.67"/><polygon class="cls-1" points="163.33 366.67 176.67 366.67 176.67 353.33 196.67 353.33 196.67 366.67 210 366.67 210 353.33 216.67 353.33 216.67 340 176.67 340 176.67 326.67 163.33 326.67 163.33 366.67"/><polygon class="cls-1" points="303.33 226.67 303.33 213.33 316.67 213.33 316.67 200 330 200 330 173.33 290 173.33 290 200 276.67 200 276.67 213.33 290 213.33 290 226.67 303.33 226.67"/><polygon class="cls-1" points="283.33 146.67 296.67 146.67 296.67 133.33 283.33 133.33 283.33 120 270 120 270 160 283.33 160 283.33 146.67"/><rect class="cls-1" x="123.33" y="140" width="26.67" height="13.33"/><rect class="cls-1" x="163.33" y="140" width="13.33" height="13.33"/><rect class="cls-1" x="123.33" y="206.67" width="13.33" height="13.33"/><rect class="cls-1" x="163.33" y="220" width="13.33" height="13.33"/><rect class="cls-1" x="176.67" y="206.67" width="13.33" height="13.33"/><rect class="cls-1" x="176.67" y="313.33" width="13.33" height="13.33"/><rect class="cls-1" x="110" y="180" width="13.33" height="13.33"/><rect class="cls-1" x="123.33" y="166.67" width="26.67" height="13.33"/><rect class="cls-1" x="150" y="180" width="13.33" height="13.33"/><rect class="cls-1" x="256.67" y="173.33" width="13.33" height="13.33"/><rect class="cls-1" x="243.33" y="186.67" width="13.33" height="13.33"/><rect class="cls-1" x="263.33" y="220" width="13.33" height="13.33"/><rect class="cls-1" x="350" y="206.67" width="26.67" height="13.33"/><rect class="cls-1" x="376.67" y="220" width="13.33" height="13.33"/><rect class="cls-1" x="236.67" y="220" width="13.33" height="13.33"/><polygon class="cls-1" points="230 220 203.33 220 203.33 233.33 190 233.33 190 246.67 216.67 246.67 216.67 233.33 230 233.33 230 220"/><polygon class="cls-1" points="243.33 353.33 230 353.33 230 366.67 256.67 366.67 256.67 353.33 270 353.33 270 340 243.33 340 243.33 353.33"/><polygon class="cls-1" points="310 340 310 353.33 296.67 353.33 296.67 366.67 323.33 366.67 323.33 353.33 336.67 353.33 336.67 340 310 340"/><polygon class="cls-1" points="370 140 370 126.67 383.33 126.67 383.33 113.33 356.67 113.33 356.67 126.67 343.33 126.67 343.33 140 370 140"/><rect class="cls-1" x="250" y="266.67" width="13.33" height="13.33"/><rect class="cls-1" x="250" y="293.33" width="13.33" height="13.33"/><rect class="cls-1" x="230" y="326.67" width="13.33" height="13.33"/><polygon class="cls-1" points="236.67 266.67 236.67 253.33 223.33 253.33 223.33 266.67 223.33 280 236.67 280 236.67 266.67"/><rect class="cls-1" x="263.33" y="306.67" width="13.33" height="13.33"/><polygon class="cls-1" points="363.33 353.33 336.67 353.33 336.67 366.67 376.67 366.67 376.67 340 363.33 340 363.33 353.33"/><rect class="cls-1" x="363.33" y="313.33" width="13.33" height="13.33"/><rect class="cls-1" x="336.67" y="313.33" width="13.33" height="13.33"/><rect class="cls-1" x="310" y="313.33" width="13.33" height="13.33"/><rect class="cls-1" x="323.33" y="300" width="13.33" height="13.33"/><rect class="cls-1" x="283.33" y="340" width="13.33" height="13.33"/><rect class="cls-1" x="163.33" y="193.33" width="13.33" height="13.33"/><polygon class="cls-1" points="403.33 366.67 416.67 366.67 416.67 326.67 390 326.67 390 340 403.33 340 403.33 366.67"/><rect class="cls-1" x="390" y="300" width="13.33" height="13.33"/><polygon class="cls-1" points="416.67 246.67 403.33 246.67 403.33 273.33 390 273.33 390 286.67 416.67 286.67 416.67 246.67"/><rect class="cls-1" x="403.33" y="220" width="13.33" height="13.33"/><polygon class="cls-1" points="416.67 113.33 403.33 113.33 403.33 173.33 376.67 173.33 376.67 160 350 160 350 186.67 403.33 186.67 403.33 206.67 416.67 206.67 416.67 113.33"/><polygon class="cls-1" points="316.67 293.33 316.67 266.67 303.33 266.67 303.33 240 263.33 240 263.33 266.67 276.67 266.67 276.67 293.33 316.67 293.33"/><polygon class="cls-1" points="163.33 233.33 110 233.33 110 286.67 136.67 286.67 136.67 273.33 123.33 273.33 123.33 260 150 260 150 300 163.33 300 163.33 286.67 190 286.67 190 273.33 176.67 273.33 176.67 260 190 260 190 246.67 163.33 246.67 163.33 233.33"/><polygon class="cls-1" points="390 246.67 363.33 246.67 363.33 233.33 336.67 233.33 336.67 260 350 260 350 300 363.33 300 363.33 286.67 376.67 286.67 376.67 260 390 260 390 246.67"/><rect class="cls-2" y="179.68" width="500" height="26.67"/></g></g></svg>