<svg xmlns="http://www.w3.org/2000/svg" viewBox="0 0 440.04 305.87"><defs><style>.cls-1{fill:#076633;}.cls-2{fill:none;stroke:#03c85e;stroke-linecap:round;stroke-linejoin:round;stroke-width:8px;}</style></defs><g id="Capa_2" data-name="Capa 2"><g id="Capa_4" data-name="Capa 4"><g id="drill"><path id="Trazado_3" data-name="Trazado 3" class="cls-1" d="M184.74,136.51H18.31A18.32,18.32,0,0,1,0,118.2V18.31A18.33,18.33,0,0,1,18.31,0H184.75a5.16,5.16,0,0,1,5.17,5.16h0V131.34a5.16,5.16,0,0,1-5.16,5.17ZM18.31,10.33a8,8,0,0,0-8,8V118.2a8,8,0,0,0,8,8H179.57V10.33Z"/><path id="Trazado_4" data-name="Trazado 4" class="cls-1" d="M184.73,136.51a5.16,5.16,0,0,1-5.16-5.16h0V5.16A5.16,5.16,0,0,1,184.74,0a5.1,5.1,0,0,1,2.68.76L228.9,26.07a5.17,5.17,0,0,1,2.47,4.41v75.58a5.18,5.18,0,0,1-2.47,4.41l-41.48,25.31A5.09,5.09,0,0,1,184.73,136.51ZM189.9,14.37V122.15l31.12-19V33.35Z"/><path id="Trazado_5" data-name="Trazado 5" class="cls-1" d="M257.43,111.23H226.18a5.16,5.16,0,0,1-5.16-5.17h0V30.45a5.16,5.16,0,0,1,5.16-5.16h31.25A5.13,5.13,0,0,1,261.29,27L280.8,49a5.17,5.17,0,0,1,1.31,3.43V84.12a5.15,5.15,0,0,1-1.31,3.43l-19.51,21.94A5.17,5.17,0,0,1,257.43,111.23ZM231.37,100.9h23.74l16.67-18.73V54.35L255.11,35.62H231.35Z"/><path id="Trazado_6" data-name="Trazado 6" class="cls-1" d="M340.83,89.29H276.94a5.16,5.16,0,0,1-5.16-5.17h0V52.38a5.16,5.16,0,0,1,5.16-5.16h63.89a5.16,5.16,0,0,1,3.68,1.55l15.58,15.87a5.16,5.16,0,0,1,0,7.23L344.55,87.74a5.21,5.21,0,0,1-3.7,1.55ZM282.11,78.94h56.56l10.51-10.7L338.7,57.55H282.11Z"/><path id="Trazado_7" data-name="Trazado 7" class="cls-1" d="M199.29,44.31H184.73a5.17,5.17,0,0,1,0-10.34h14.56a5.17,5.17,0,0,1,0,10.34Z"/><path id="Trazado_8" data-name="Trazado 8" class="cls-1" d="M199.29,73.42H184.73a5.17,5.17,0,0,1,0-10.33h14.56a5.17,5.17,0,0,1,0,10.33Z"/><path id="Trazado_9" data-name="Trazado 9" class="cls-1" d="M199.29,102.54H184.73a5.17,5.17,0,0,1,0-10.33h14.56a5.17,5.17,0,0,1,0,10.33Z"/><path id="Trazado_10" data-name="Trazado 10" class="cls-1" d="M127.36,63.72H50a16.05,16.05,0,0,1-16-16V5.16A5.16,5.16,0,0,1,39.16,0h99.07a5.16,5.16,0,0,1,5.16,5.16h0V47.7a16.06,16.06,0,0,1-16,16Zm-83-53.39V47.68A5.71,5.71,0,0,0,50,53.37h77.37a5.71,5.71,0,0,0,5.7-5.69V10.33Z"/><path id="Trazado_11" data-name="Trazado 11" class="cls-1" d="M72.32,254.22a5.16,5.16,0,0,1-5.15-4.78A232.88,232.88,0,0,1,90.42,128.85a5.16,5.16,0,0,1,9,5,226.62,226.62,0,0,0-22,114.81,5.17,5.17,0,0,1-4.75,5.55h0Z"/><path id="Trazado_12" data-name="Trazado 12" class="cls-1" d="M10.33,254.22a5.16,5.16,0,0,1-5.16-5.05c-2-83.39,22.52-119.32,23.57-120.79a5.17,5.17,0,0,1,8.46,5.93c-.27.42-23.61,35.15-21.7,114.61a5.18,5.18,0,0,1-5,5.29h-.13Z"/><path id="Trazado_13" data-name="Trazado 13" class="cls-1" d="M133.49,305.87H16.33A11.18,11.18,0,0,1,5.16,294.73V249a5.17,5.17,0,0,1,5.17-5.16H133.49A11.17,11.17,0,0,1,144.63,255v39.71A11.17,11.17,0,0,1,133.49,305.87Zm-118-51.66v40.52a.8.8,0,0,0,.8.81H133.49a.81.81,0,0,0,.81-.81h0V255a.81.81,0,0,0-.81-.81H15.5Z"/><path id="Trazado_14" data-name="Trazado 14" class="cls-1" d="M121.08,176.73H79.85a5.17,5.17,0,0,1,0-10.33h37.2l9-36.33a5.17,5.17,0,0,1,10.07,2.32,1.21,1.21,0,0,1,0,.18l-10,40.24a5.17,5.17,0,0,1-5,3.91Z"/></g><g id="list"><line id="Línea_5" data-name="Línea 5" class="cls-2" x1="319.06" y1="181.61" x2="436.04" y2="181.61"/><line id="Línea_6" data-name="Línea 6" class="cls-2" x1="319.06" y1="234.79" x2="436.04" y2="234.79"/><line id="Línea_7" data-name="Línea 7" class="cls-2" x1="319.06" y1="293.28" x2="436.04" y2="293.28"/><line id="Línea_8" data-name="Línea 8" class="cls-2" x1="271.35" y1="181.89" x2="271.44" y2="181.89"/><line id="Línea_9" data-name="Línea 9" class="cls-2" x1="271.35" y1="237.38" x2="271.44" y2="237.38"/><line id="Línea_10" data-name="Línea 10" class="cls-2" x1="271.35" y1="292.87" x2="271.44" y2="292.87"/></g></g></g></svg>