<svg xmlns="http://www.w3.org/2000/svg" viewBox="0 0 458.97 298.85"><defs><style>.cls-1{fill:#066532;}.cls-2{fill:#fff;}.cls-3{fill:none;stroke:#03c85e;stroke-linecap:round;stroke-linejoin:round;stroke-width:7px;}</style></defs><g id="Capa_2" data-name="Capa 2"><g id="Capa_3" data-name="Capa 3"><path id="suitcase" class="cls-1" d="M315.08,41.34H211.78V5.17A5.16,5.16,0,0,0,206.62,0h-93a5.17,5.17,0,0,0-5.17,5.17V41.34H5.17A5.17,5.17,0,0,0,0,46.49V167.85a18.09,18.09,0,0,0,18.08,18.08h2.59v74.92a18.1,18.1,0,0,0,18.07,18.08H281.51a18.1,18.1,0,0,0,18.08-18.08V186h2.59a18.1,18.1,0,0,0,18.09-18.1V46.49a5.16,5.16,0,0,0-5.19-5.15Zm-196.28-31h82.65V20.66H118.8Zm0,20.66h82.65V41.34H118.8ZM289.26,260.85a7.76,7.76,0,0,1-7.75,7.75H38.74A7.76,7.76,0,0,1,31,260.85V186H139.46v20.66a5.18,5.18,0,0,0,5.17,5.17h31a5.17,5.17,0,0,0,5.18-5.15V186H289.26Zm-139.47-59.4V160.1h20.66v41.35Zm160.13-33.6a7.75,7.75,0,0,1-7.75,7.75H180.8V155a5.17,5.17,0,0,0-5.16-5.17h-31a5.18,5.18,0,0,0-5.17,5.17h0v20.66H18.08a7.76,7.76,0,0,1-7.75-7.76h0V51.65H309.92Z"/><rect id="Rectángulo_11" data-name="Rectángulo 11" class="cls-2" x="214.91" y="124.52" width="244.06" height="174.33"/><g id="list"><line id="Línea_5" data-name="Línea 5" class="cls-3" x1="304.43" y1="164.37" x2="414.01" y2="164.37"/><line id="Línea_6" data-name="Línea 6" class="cls-3" x1="304.43" y1="214.18" x2="414.01" y2="214.18"/><line id="Línea_7" data-name="Línea 7" class="cls-3" x1="304.43" y1="268.97" x2="414.01" y2="268.97"/><line id="Línea_8" data-name="Línea 8" class="cls-3" x1="259.74" y1="164.63" x2="259.83" y2="164.63"/><line id="Línea_9" data-name="Línea 9" class="cls-3" x1="259.74" y1="216.61" x2="259.83" y2="216.61"/><line id="Línea_10" data-name="Línea 10" class="cls-3" x1="259.74" y1="268.58" x2="259.83" y2="268.58"/></g></g></g></svg>