<svg xmlns="http://www.w3.org/2000/svg" viewBox="0 0 73 73"><defs><style>.cls-1{opacity:0.2;}.cls-2,.cls-4{fill:#fff;}.cls-3{fill:none;}.cls-4{stroke:#c99e67;stroke-width:3px;}.cls-5{fill:#c99e67;}</style></defs><g id="Capa_2" data-name="Capa 2"><g id="Capa_2-2" data-name="Capa 2"><g class="cls-1"><path class="cls-2" d="M73,71.5V73A73,73,0,0,1,0,0H1.5A71.5,71.5,0,0,0,73,71.5Z"/><g id="Enmascarar_grupo_1" data-name="Enmascarar grupo 1"><g id="Elipse_5" data-name="Elipse 5"><path class="cls-3" d="M1.5,0H0A73,73,0,0,0,73,73V71.5A71.5,71.5,0,0,1,1.5,0Z"/><path class="cls-4" d="M73,71.5A71.5,71.5,0,0,1,1.5,0"/></g></g><g id="Enmascarar_grupo_2" data-name="Enmascarar grupo 2"><path class="cls-5" d="M73,10V40A40,40,0,0,1,33,0H63A10,10,0,0,1,73,10Z"/></g></g></g></g></svg>